<?xml version="1.0" standalone="no"?>
<!DOCTYPE svg PUBLIC "-//W3C//DTD SVG 20010904//EN"
 "http://www.w3.org/TR/2001/REC-SVG-20010904/DTD/svg10.dtd">
<svg version="1.0" xmlns="http://www.w3.org/2000/svg"
 width="225.000000pt" height="225.000000pt" viewBox="0 0 225.000000 225.000000"
 preserveAspectRatio="xMidYMid meet">
<metadata>
Created by potrace 1.14, written by Peter Selinger 2001-2017
</metadata>
<g transform="translate(0.000000,225.000000) scale(0.100000,-0.100000)"
fill="#000000" stroke="none">
<path d="M0 1125 l0 -1125 1125 0 1125 0 0 1125 0 1125 -1125 0 -1125 0 0
-1125z m1285 543 c194 -56 351 -227 388 -425 12 -61 -8 -33 -26 35 -63 243
-314 420 -563 397 -233 -21 -417 -176 -480 -404 -20 -72 -36 -82 -22 -13 19
91 76 192 152 268 153 153 343 202 551 142z m-24 -34 c141 -41 262 -141 324
-267 35 -72 59 -157 45 -157 -4 0 -15 29 -25 65 -38 141 -168 282 -305 330
-135 48 -264 39 -396 -25 -129 -63 -216 -168 -260 -315 -11 -36 -20 -52 -21
-40 -5 29 32 131 68 186 65 101 189 193 300 223 73 20 203 20 270 0z m-105
-51 c46 -8 44 -8 -41 -13 -101 -6 -160 -29 -185 -73 -13 -23 -13 -28 4 -46 27
-30 107 -51 190 -51 86 0 131 12 176 45 40 30 54 32 41 6 -6 -10 -32 -30 -58
-43 -42 -20 -62 -23 -168 -23 -106 0 -125 3 -163 23 -80 43 -80 102 1 141 38
18 100 36 143 40 6 1 33 -2 60 -6z m58 -43 c21 -4 46 -16 55 -25 14 -14 11
-13 -19 2 -71 35 -250 11 -250 -34 0 -33 131 -61 190 -40 77 27 28 77 -59 60
-52 -10 -73 -38 -22 -31 17 2 31 1 31 -4 0 -14 -67 -9 -79 6 -30 36 105 64
154 32 55 -36 15 -86 -70 -86 -88 0 -165 31 -165 66 0 45 137 77 234 54z m229
-107 c38 -35 15 -89 -47 -113 -42 -16 -44 -5 -2 15 19 9 38 26 42 37 8 25 -22
58 -53 58 -23 0 -30 10 -16 24 10 10 55 -3 76 -21z m-117 -78 c-9 -23 -26 -51
-37 -61 -18 -16 -18 -13 4 37 14 30 28 63 32 74 5 14 9 16 12 7 3 -8 -2 -33
-11 -57z m-393 17 c19 -93 157 -151 282 -119 23 6 26 5 13 -3 -30 -18 -113
-23 -167 -10 -57 13 -104 47 -125 89 -18 35 -29 84 -18 77 5 -3 12 -18 15 -34z
m447 8 c12 -8 11 -10 -7 -10 -13 0 -23 5 -23 10 0 13 11 13 30 0z m-490 -40
c-13 -8 -12 -10 3 -10 22 0 22 -16 1 -24 -23 -9 -54 2 -54 19 0 15 15 23 45
24 16 1 17 -1 5 -9z m498 -62 c4 -20 -17 -28 -46 -17 -19 7 -21 11 -10 28 13
22 51 14 56 -11z m-459 9 c13 -16 -4 -37 -31 -37 -21 0 -24 20 -6 38 15 15 23
15 37 -1z m399 -55 c3 -23 -5 -27 -32 -16 -19 7 -21 30 -3 37 20 9 32 2 35
-21z m-171 -34 c-17 -11 -99 -9 -116 1 -10 6 10 9 56 8 39 -1 66 -5 60 -9z
m-582 -63 c0 -15 -8 -21 -32 -23 -29 -3 -33 -7 -33 -33 0 -24 4 -29 25 -29 16
0 25 -6 25 -15 0 -9 -11 -20 -25 -25 -17 -7 -25 -17 -25 -35 0 -22 3 -24 30
-18 27 5 30 3 30 -21 0 -25 -3 -26 -50 -26 l-50 0 0 119 c0 132 0 131 65 128
33 -2 40 -6 40 -22z m443 -2 c3 -20 -1 -23 -32 -23 -32 0 -34 -2 -32 -27 2
-20 10 -29 25 -31 27 -4 28 -38 1 -45 -13 -3 -20 -14 -20 -29 0 -19 5 -24 28
-23 20 0 27 -5 27 -20 0 -17 -8 -20 -53 -23 l-53 -3 2 118 c1 73 6 121 13 126
6 4 29 6 51 5 33 -3 41 -7 43 -25z m140 -18 c24 -26 32 -44 32 -70 0 -79 -51
-139 -113 -133 l-32 3 -3 117 c-2 105 -1 117 15 121 34 9 68 -4 101 -38z m150
18 c3 -20 -1 -23 -33 -23 -30 0 -36 -3 -31 -16 3 -9 6 -22 6 -30 0 -8 10 -14
25 -14 16 0 25 -6 25 -15 0 -9 -11 -20 -25 -25 -17 -6 -25 -17 -25 -33 0 -18
5 -23 28 -22 20 0 27 -5 27 -20 0 -17 -8 -20 -46 -23 -43 -3 -47 -1 -52 24 -5
27 1 189 9 212 2 9 18 12 46 10 36 -2 44 -7 46 -25z m141 1 c17 -22 19 -30 9
-41 -10 -13 -14 -12 -29 6 -20 25 -44 27 -53 5 -11 -29 -6 -120 7 -138 12 -17
15 -17 29 -2 9 8 18 21 20 27 3 8 10 9 20 3 24 -14 -2 -71 -36 -80 -62 -15
-96 52 -83 164 9 78 74 109 116 56z m150 9 c9 -17 81 -221 81 -229 0 -2 -11
-4 -25 -4 -20 0 -26 7 -35 40 -9 35 -14 40 -40 40 -25 0 -31 -5 -41 -39 -12
-40 -35 -59 -51 -43 -8 8 27 129 67 240 6 18 33 15 44 -5z m219 -5 c-2 -19
-11 -24 -43 -28 -31 -4 -41 -10 -43 -26 -3 -18 4 -22 38 -28 27 -4 40 -11 37
-19 -2 -6 -9 -11 -15 -10 -6 2 -23 -2 -37 -7 -22 -8 -25 -16 -25 -54 0 -46
-16 -69 -30 -46 -9 15 -13 217 -5 231 4 5 33 9 66 9 57 0 60 -1 57 -22z m126
6 c9 -23 -2 -34 -35 -34 -26 0 -29 -3 -29 -30 0 -25 4 -30 25 -30 16 0 25 -6
25 -15 0 -9 -11 -20 -25 -25 -17 -7 -25 -17 -25 -35 0 -22 3 -24 31 -18 28 5
30 4 27 -18 -3 -21 -9 -24 -50 -27 l-48 -3 -1 38 c-2 119 3 198 14 205 23 14
85 9 91 -8z m-1494 -15 c0 -12 -8 -23 -20 -26 -18 -5 -20 -14 -20 -77 0 -90
-7 -116 -31 -116 -17 0 -19 9 -19 94 0 92 -6 110 -35 111 -5 0 -11 8 -13 18
-3 15 5 17 67 17 65 0 71 -2 71 -21z m277 -5 c16 -25 16 -28 -4 -63 -21 -36
-21 -36 -1 -85 15 -39 16 -51 6 -57 -17 -11 -28 -11 -28 0 0 5 -7 25 -15 44
-20 48 -45 40 -45 -13 0 -42 -8 -53 -29 -41 -8 6 -13 43 -15 120 -1 61 0 114
3 116 2 3 28 5 57 5 47 0 56 -3 71 -26z m160 -3 c10 -20 9 -31 -7 -60 -17 -35
-17 -37 2 -85 15 -39 16 -51 6 -57 -21 -14 -24 -11 -42 35 -21 56 -46 53 -46
-4 0 -42 -8 -53 -29 -41 -9 6 -14 41 -16 117 -1 60 0 113 2 117 3 4 30 7 61 5
48 -3 58 -7 69 -27z m-172 -335 c78 -97 210 -167 349 -186 188 -27 412 75 506
229 24 39 40 52 40 32 0 -5 -17 -31 -38 -58 -120 -150 -266 -223 -447 -223
-143 0 -267 48 -372 144 -57 52 -113 126 -112 148 0 7 8 2 17 -12 9 -14 35
-47 57 -74z m6 58 c20 -38 115 -121 168 -149 89 -45 156 -58 268 -53 96 4 108
7 187 46 67 33 98 57 150 113 37 40 69 69 72 66 13 -12 -152 -164 -207 -191
-212 -102 -433 -65 -596 100 -68 68 -85 94 -65 94 5 0 15 -12 23 -26z m186
-60 c-7 -7 -57 15 -57 25 0 5 14 3 31 -6 16 -8 28 -17 26 -19z m33 11 c0 -14
-4 -25 -10 -25 -5 0 -10 11 -10 25 0 14 5 25 10 25 6 0 10 -11 10 -25z m60 0
c13 -14 21 -25 18 -25 -2 0 -15 11 -28 25 -13 14 -21 25 -18 25 2 0 15 -11 28
-25z m47 -12 c-3 -10 -5 -4 -5 12 0 17 2 24 5 18 2 -7 2 -21 0 -30z m85 25 c6
-17 -1 -38 -13 -38 -5 0 -9 11 -9 25 0 26 14 34 22 13z m108 3 c0 -6 -4 -13
-10 -16 -5 -3 -10 1 -10 9 0 9 5 16 10 16 6 0 10 -4 10 -9z m20 -18 c0 -21 -3
-24 -9 -14 -5 8 -7 20 -4 28 8 21 13 15 13 -14z m27 -10 c-3 -10 -5 -4 -5 12
0 17 2 24 5 18 2 -7 2 -21 0 -30z m43 12 c0 -14 -3 -25 -7 -25 -5 0 -8 11 -8
25 0 14 3 25 8 25 4 0 7 -11 7 -25z m51 16 c0 8 4 5 9 -6 13 -31 11 -39 -6
-24 -13 10 -17 10 -24 0 -5 -9 -7 -4 -7 13 0 21 2 24 13 15 11 -9 14 -8 15 2z
m-148 -38 c-7 -2 -19 -2 -25 0 -7 3 -2 5 12 5 14 0 19 -2 13 -5z"/>
<path d="M1088 1030 c2 -44 7 -80 11 -80 16 0 39 37 44 72 4 28 1 43 -14 63
-36 44 -44 32 -41 -55z"/>
<path d="M1566 1044 c-9 -22 -8 -24 9 -24 8 0 15 6 15 14 0 22 -17 28 -24 10z"/>
<path d="M640 1080 c0 -35 23 -41 40 -10 13 25 5 40 -21 40 -14 0 -19 -7 -19
-30z"/>
<path d="M800 1075 c0 -32 2 -35 19 -26 37 20 37 61 0 61 -15 0 -19 -7 -19
-35z"/>
</g>
</svg>
